<?xml version="1.0" encoding="utf-8"?>
<!-- Svg Vector Icons : http://www.onlinewebfonts.com/icon -->
<!DOCTYPE svg PUBLIC "-//W3C//DTD SVG 1.1//EN" "http://www.w3.org/Graphics/SVG/1.1/DTD/svg11.dtd">
<svg version="1.1" xmlns="http://www.w3.org/2000/svg" xmlns:xlink="http://www.w3.org/1999/xlink" x="0px" y="0px" viewBox="0 0 256 256" enable-background="new 0 0 256 256" xml:space="preserve">
<metadata> Svg Vector Icons : http://www.onlinewebfonts.com/icon </metadata>
<g><g><path stroke-width="8" fill-opacity="0" stroke="#000000"  d="M130.6,10c1,0.1,2,0.2,3,0.2c15.7,0.7,30.6,4.4,44.7,11.1c12.8,6,24.2,14.1,34.1,24.3c15.9,16.4,26.3,35.7,31,58c1.8,8.6,2.7,17.4,2.5,26.2c-0.6,25-8,47.7-22.9,67.8c-17.4,23.6-40.6,38.7-69.1,45.3c-7.3,1.7-14.7,2.6-22.2,2.8c-27.4,0.7-52.3-6.9-74.2-23.4c-21.7-16.2-36.1-37.4-43.3-63.5c-2-7.3-3.3-14.6-3.8-22.2c-0.1-2.1-0.3-4.2-0.5-6.3c0-1.7,0-3.5,0-5.2c0-0.4,0.1-0.7,0.1-1.1c0.2-2.6,0.3-5.2,0.5-7.8c0.7-8.6,2.5-17,5.2-25.1c10.8-31.8,31.3-55.2,61.5-69.9c14.2-6.9,29.3-10.5,45-11.3c1,0,2-0.2,3-0.2C127.2,10,128.9,10,130.6,10z M128.1,14.3C65.6,14.2,15,64.7,14.3,126.6c-0.8,63.6,50.4,114.6,112.3,115.3c63.5,0.7,114.5-50.4,115.2-112.4C242.5,65.7,190.9,14.2,128.1,14.3z"/><path stroke-width="8" fill-opacity="0" stroke="#000000"  d="M66.5,124.8c0,7.4,6,13.3,13.3,13.3c7.4,0,13.3-6,13.3-13.3c0-7.4-6-13.3-13.3-13.3C72.5,111.5,66.5,117.5,66.5,124.8L66.5,124.8z M119,124.8c0,7.4,6,13.3,13.3,13.3c7.4,0,13.3-6,13.3-13.3c0-7.4-6-13.3-13.3-13.3C125,111.5,119,117.5,119,124.8L119,124.8z M167.9,124.8c0,7.4,6,13.3,13.3,13.3s13.3-6,13.3-13.3c0-7.4-6-13.3-13.3-13.3S167.9,117.5,167.9,124.8L167.9,124.8z"/></g></g>
</svg>